<?xml version="1.0" encoding="UTF-8"?>
<svg version="1.1" xmlns="http://www.w3.org/2000/svg" width="512" height="512">
<path d="M0 0 C19.29563777 16.58131784 31.58937756 40.63939896 34.2890625 65.87890625 C34.35273012 67.98132941 34.39757613 70.08435816 34.4296875 72.1875 C34.45869141 73.92676758 34.45869141 73.92676758 34.48828125 75.70117188 C34.52207818 78.10725357 34.54036028 80.51360424 34.54296875 82.91992188 C34.6813041 89.47628945 35.15211877 93.86890454 39.07080078 99.20239258 C43.59708996 105.43125587 42.93285865 113.58791484 42.2890625 120.87890625 C39.88551695 130.84815768 34.10905894 138.37117054 25.44921875 143.69140625 C19.90560746 146.73888877 15.47720335 147.09229042 9.2890625 146.87890625 C9.02222656 147.760625 8.75539063 148.64234375 8.48046875 149.55078125 C5.06270007 159.09812196 -1.79463665 166.66619251 -8.7109375 173.87890625 C-9.3090625 174.52859375 -9.9071875 175.17828125 -10.5234375 175.84765625 C-13.68161552 179.18128861 -16.52645363 181.33970192 -20.5859375 183.50390625 C-23.84123755 185.51567063 -24.58433762 186.35753926 -25.50390625 190.14453125 C-25.74832212 193.41757853 -25.8325472 196.60030867 -25.7109375 199.87890625 C-24.5971875 200.28302734 -24.5971875 200.28302734 -23.4609375 200.6953125 C-20.82925472 201.82798279 -18.99444184 203.11675245 -16.7109375 204.81640625 C-9.26256769 209.47163738 -0.26030003 209.71191634 8.29296875 210.58520508 C10.2890625 210.87890625 10.2890625 210.87890625 12.2890625 211.87890625 C12.3509375 210.80640625 12.4128125 209.73390625 12.4765625 208.62890625 C13.78593581 198.47677892 19.10188124 189.80118834 25.2890625 181.87890625 C26.05476563 180.84830078 26.05476563 180.84830078 26.8359375 179.796875 C36.63354318 167.5013649 52.15879262 160.02919705 67.2890625 156.87890625 C71.23792554 156.46693161 75.13351623 156.40102064 79.1015625 156.44140625 C80.67695801 156.45276611 80.67695801 156.45276611 82.28417969 156.46435547 C100.70624936 156.85371424 116.13567442 164.23997334 129.40625 176.8984375 C138.57283478 186.51086784 144.168748 198.06269925 147.2890625 210.87890625 C147.47984375 211.65492188 147.670625 212.4309375 147.8671875 213.23046875 C150.90941848 232.32891878 146.12898315 251.11195765 135.1875 266.9140625 C124.15312201 281.08719465 108.14777899 291.03572751 90.2890625 293.87890625 C89.2990625 293.87890625 88.3090625 293.87890625 87.2890625 293.87890625 C87.29905525 294.82064949 87.29905525 294.82064949 87.30924988 295.78141785 C87.37564632 302.31882606 87.42088113 308.85613839 87.45385742 315.39379883 C87.46893904 317.83329153 87.48940719 320.27275715 87.51538086 322.7121582 C87.55179062 326.21963184 87.56879539 329.72674679 87.58203125 333.234375 C87.59751511 334.32413132 87.61299896 335.41388763 87.62895203 336.53666687 C87.63103252 345.90817033 87.63103252 345.90817033 84.2890625 349.87890625 C82.6313841 351.53658465 80.67692684 351.00726807 78.3954792 351.01033401 C77.3294192 351.01417516 76.26335921 351.0180163 75.16499436 351.02197385 C73.38648789 351.02067412 73.38648789 351.02067412 71.572052 351.01934814 C70.32374725 351.02231927 69.0754425 351.02529039 67.78931034 351.02835155 C64.30847585 351.03644994 60.82766195 351.03821269 57.34681916 351.03894901 C53.59895409 351.04079465 49.85109983 351.04833948 46.10324097 351.05508423 C37.90088248 351.06868816 29.69852887 351.07469545 21.49616098 351.07909489 C16.37854184 351.08185381 11.26092459 351.08609051 6.14330673 351.09059906 C-8.01445078 351.10279436 -22.17220676 351.1130932 -36.32996941 351.11647415 C-37.23676864 351.11669372 -38.14356788 351.11691328 -39.07784588 351.1171395 C-39.98686549 351.11735778 -40.89588509 351.11757606 -41.83245075 351.11780095 C-43.67459607 351.11824442 -45.5167414 351.11869099 -47.35888672 351.11914062 C-48.72955025 351.11947277 -48.72955025 351.11947277 -50.12790395 351.11981162 C-64.94064851 351.12376122 -79.75334391 351.14121901 -94.56606947 351.16450015 C-109.75913431 351.18818713 -124.95217446 351.20067479 -140.14525807 351.20184207 C-148.68165265 351.20276032 -157.2179832 351.20855027 -165.7543602 351.22666168 C-173.02223124 351.24202693 -180.29001849 351.24720438 -187.55790268 351.23892358 C-191.26863271 351.23500432 -194.97919379 351.23600831 -198.68990326 351.24998093 C-202.70671215 351.26496834 -206.72313676 351.25689125 -210.73995972 351.24639893 C-211.92116925 351.25445533 -213.10237879 351.26251173 -214.31938255 351.27081227 C-215.39065804 351.26422243 -216.46193353 351.25763258 -217.56567192 351.25084305 C-218.95748312 351.25173868 -218.95748312 351.25173868 -220.37741172 351.25265241 C-223.17175277 350.80510036 -224.06436371 350.15039328 -225.7109375 347.87890625 C-226.09861755 344.96160889 -226.09861755 344.96160889 -226.11499023 341.35058594 C-226.12185349 340.69149231 -226.12871674 340.03239868 -226.13578796 339.35333252 C-226.1541171 337.16893043 -226.15020374 334.98524401 -226.14453125 332.80078125 C-226.14909637 331.27158375 -226.15440292 329.7423883 -226.16041565 328.2131958 C-226.16936331 324.99849153 -226.16691227 321.7840353 -226.15698242 318.56933594 C-226.14560178 314.4912389 -226.16552506 310.41402191 -226.19489956 306.3360405 C-226.21346127 303.16996989 -226.21292809 300.00410132 -226.20726204 296.83798981 C-226.20711064 295.33760613 -226.21300125 293.83720709 -226.22555351 292.33687592 C-226.38856866 269.61925164 -218.49100668 251.04104759 -202.59765625 234.70703125 C-186.0702613 219.11628939 -165.46351489 212.76412601 -143.44140625 210.25 C-133.44209165 209.07228628 -126.32200882 207.42664993 -118.046875 201.5234375 C-115.7109375 199.87890625 -115.7109375 199.87890625 -113.7109375 199.87890625 C-113.41379028 195.34568361 -113.52987175 191.28244881 -114.7109375 186.87890625 C-117.09747078 184.34544089 -119.5820063 182.78001915 -122.53515625 180.9453125 C-134.26701258 173.31166921 -144.76217083 160.35356366 -148.7109375 146.87890625 C-149.8453125 146.96140625 -150.9796875 147.04390625 -152.1484375 147.12890625 C-160.25319623 147.10031804 -168.04845831 142.4817804 -173.7109375 136.87890625 C-180.63158202 127.45700883 -182.95404643 118.52228297 -181.7109375 106.87890625 C-180.18688545 101.7911786 -178.51816691 96.68613566 -174.7109375 92.87890625 C-174.40462367 90.39214117 -174.40462367 90.39214117 -174.4375 87.48046875 C-174.41993652 86.37098877 -174.40237305 85.26150879 -174.38427734 84.1184082 C-174.3683252 82.92562256 -174.35237305 81.73283691 -174.3359375 80.50390625 C-173.8446912 62.19348682 -171.10932247 46.22982476 -162.7109375 29.87890625 C-161.92589844 28.31269531 -161.92589844 28.31269531 -161.125 26.71484375 C-148.64847428 3.64848645 -126.7965551 -12.70655849 -101.91015625 -20.27734375 C-66.44496312 -30.2670479 -28.48184623 -23.62104033 0 0 Z M-131.7109375 13.87890625 C-132.34773438 14.43191406 -132.98453125 14.98492187 -133.640625 15.5546875 C-147.66591161 28.57816792 -156.2877589 48.13490704 -158.7109375 66.87890625 C-158.77750062 69.51480583 -158.80661161 72.12039221 -158.7734375 74.75390625 C-158.76892578 75.44226563 -158.76441406 76.130625 -158.75976562 76.83984375 C-158.74810086 78.5195696 -158.73017021 80.19925 -158.7109375 81.87890625 C-157.7209375 81.87890625 -156.7309375 81.87890625 -155.7109375 81.87890625 C-155.6284375 80.62078125 -155.5459375 79.36265625 -155.4609375 78.06640625 C-155.0893601 75.23438394 -154.88778727 74.10336942 -153.0859375 71.81640625 C-146.90032666 69.37471776 -138.57137278 73.17508964 -132.4296875 74.84375 C-121.04557143 77.55480737 -109.49884192 78.24304182 -97.8359375 78.19140625 C-97.17173798 78.18958344 -96.50753845 78.18776062 -95.82321167 78.18588257 C-62.04504572 78.03165813 -27.27342284 71.17461417 3.7734375 57.69140625 C6.80380722 56.7126533 9.12385069 56.53298146 12.2890625 56.87890625 C14.55564677 58.5312109 15.21177508 59.45703304 15.72143555 62.23901367 C15.74761963 63.14498291 15.77380371 64.05095215 15.80078125 64.984375 C15.83623047 65.96728516 15.87167969 66.95019531 15.90820312 67.96289062 C15.94204102 69.49913086 15.94204102 69.49913086 15.9765625 71.06640625 C16.01072266 72.10216797 16.04488281 73.13792969 16.08007812 74.20507812 C16.16258892 76.76291285 16.23172822 79.32040348 16.2890625 81.87890625 C17.2790625 81.87890625 18.2690625 81.87890625 19.2890625 81.87890625 C20.60303671 57.13239195 12.40474418 36.02975091 -3.82421875 17.4609375 C-18.20755954 2.18356821 -39.21482536 -8.2232756 -60.27099609 -9.24536133 C-87.62360793 -10.00320089 -110.76816765 -4.66759056 -131.7109375 13.87890625 Z M-5.8203125 76.453125 C-35.65727518 85.95614171 -65.17076887 92.05244169 -96.5859375 92.12890625 C-97.25648163 92.13091034 -97.92702576 92.13291443 -98.6178894 92.13497925 C-110.83479313 92.14385768 -122.67962558 90.99738529 -134.7109375 88.87890625 C-136.71071507 88.54424106 -138.7106723 88.21064447 -140.7109375 87.87890625 C-140.81164968 92.42799797 -140.88324889 96.97640726 -140.93066406 101.52636719 C-140.95047921 103.06619602 -140.9775396 104.60595283 -141.01269531 106.14550781 C-141.49519454 127.85797302 -135.8897643 146.69843098 -120.7109375 162.87890625 C-108.06468632 175.86942924 -90.77537614 183.71201076 -72.59667969 184.17163086 C-51.49009332 184.35625651 -33.75961516 177.40301395 -18.37890625 162.640625 C-7.07521849 150.87477624 1.44643831 134.52433984 1.40258789 117.9050293 C1.40251236 116.94441086 1.40243683 115.98379242 1.40235901 114.99406433 C1.39719772 113.96992935 1.39203644 112.94579437 1.38671875 111.890625 C1.3853038 110.83228958 1.38388885 109.77395416 1.38243103 108.68354797 C1.37684409 105.31113836 1.36429394 101.93879571 1.3515625 98.56640625 C1.34654581 96.27669367 1.3419832 93.98698004 1.33789062 91.69726562 C1.32687893 86.09112308 1.31015376 80.48501945 1.2890625 74.87890625 C-1.31663086 74.87890625 -3.33624664 75.65047241 -5.8203125 76.453125 Z M-162.7109375 101.87890625 C-165.7149516 106.24486887 -167.40828517 110.53057418 -167.09375 115.8671875 C-166.08928913 121.14573186 -163.62208334 125.35422472 -159.6484375 128.94140625 C-158.6790625 129.58078125 -157.7096875 130.22015625 -156.7109375 130.87890625 C-155.2259375 130.38390625 -155.2259375 130.38390625 -153.7109375 129.87890625 C-153.86941162 129.0182959 -154.02788574 128.15768555 -154.19116211 127.27099609 C-154.68967647 124.01765718 -154.91343124 120.89265819 -155.02734375 117.60546875 C-155.06923828 116.45175781 -155.11113281 115.29804688 -155.15429688 114.109375 C-155.19361328 112.91957031 -155.23292969 111.72976562 -155.2734375 110.50390625 C-155.31662109 109.29089844 -155.35980469 108.07789063 -155.40429688 106.828125 C-155.50999263 103.84515593 -155.61209071 100.86210883 -155.7109375 97.87890625 C-159.02203757 97.87890625 -160.36031815 99.64022115 -162.7109375 101.87890625 Z M16.2890625 97.87890625 C16.26400635 98.62986572 16.2389502 99.3808252 16.21313477 100.15454102 C16.09651308 103.58364158 15.97408833 107.01251178 15.8515625 110.44140625 C15.81224609 111.62283203 15.77292969 112.80425781 15.73242188 114.02148438 C15.5253121 119.70903748 15.26937818 125.26886439 14.2890625 130.87890625 C18.52463874 130.39018591 21.48338143 127.92035884 24.2890625 124.87890625 C27.04182547 120.01569166 28.23986857 115.42527497 27.2890625 109.87890625 C25.5029439 104.60697554 23.07780063 100.90337244 18.2890625 97.87890625 C17.6290625 97.87890625 16.9690625 97.87890625 16.2890625 97.87890625 Z M38.2890625 189.87890625 C28.42796541 201.26451738 24.24411483 215.98365215 25.2890625 230.87890625 C27.78268631 247.21508745 35.45603766 260.09688276 48.64453125 270.125 C61.83088588 278.87045529 77.34509865 281.11756165 92.76953125 278.2265625 C108.74243913 273.31019851 120.4628885 263.51822158 128.2890625 248.87890625 C134.29062083 235.038949 135.50681343 220.2277213 130.2890625 205.87890625 C124.35203314 192.06389563 113.69419285 181.47085564 100.2109375 174.98046875 C77.64555805 166.47320003 54.67954124 172.36104008 38.2890625 189.87890625 Z M-98.7109375 193.87890625 C-99.22018695 196.78890313 -99.2814183 198.96484043 -97.6796875 201.53125 C-92.89503634 207.10927444 -87.46138284 212.18964876 -82.21850586 217.33569336 C-78.14873804 221.34752479 -74.37492803 225.49227968 -70.7109375 229.87890625 C-67.77379558 228.56638085 -65.83194692 227.20687484 -63.6796875 224.82421875 C-63.12168457 224.21513672 -62.56368164 223.60605469 -61.98876953 222.97851562 C-61.40208496 222.32689453 -60.81540039 221.67527344 -60.2109375 221.00390625 C-56.61375564 217.04576809 -53.03453321 213.11879528 -49.125 209.46484375 C-48.57005859 208.94132324 -48.01511719 208.41780273 -47.44335938 207.87841797 C-46.3987316 206.90391861 -45.34063662 205.94359044 -44.26757812 205.00048828 C-41.37715517 202.27956544 -40.72674876 201.06864134 -40.390625 197.03515625 C-40.49632812 195.99359375 -40.60203125 194.95203125 -40.7109375 193.87890625 C-41.49597656 194.08386719 -42.28101563 194.28882813 -43.08984375 194.5 C-44.14042969 194.76941406 -45.19101563 195.03882813 -46.2734375 195.31640625 C-47.30597656 195.58324219 -48.33851563 195.85007812 -49.40234375 196.125 C-64.40951222 199.54457912 -79.88609239 198.64363665 -94.7109375 194.87890625 C-95.505 194.68167969 -96.2990625 194.48445312 -97.1171875 194.28125 C-97.643125 194.14847656 -98.1690625 194.01570312 -98.7109375 193.87890625 Z M-112.2734375 215.87890625 C-113.09972656 216.43578125 -113.92601562 216.99265625 -114.77734375 217.56640625 C-115.41542969 217.99953125 -116.05351562 218.43265625 -116.7109375 218.87890625 C-114.22557327 226.74215758 -111.16385977 234.3192975 -108.0234375 241.94140625 C-107.50689279 243.20106174 -106.9906148 244.46082663 -106.47460938 245.72070312 C-105.22266148 248.77451995 -103.96804366 251.82721007 -102.7109375 254.87890625 C-94.26728155 249.56111039 -94.26728155 249.56111039 -86.0234375 243.94140625 C-85.19457031 243.35488281 -84.36570313 242.76835937 -83.51171875 242.1640625 C-82.91746094 241.73996094 -82.32320312 241.31585938 -81.7109375 240.87890625 C-83.1367553 237.61646482 -84.87172893 235.4934433 -87.4140625 233.015625 C-88.14753906 232.29310547 -88.88101563 231.57058594 -89.63671875 230.82617188 C-90.40371094 230.08044922 -91.17070312 229.33472656 -91.9609375 228.56640625 C-100.48098872 220.2436461 -100.48098872 220.2436461 -104.1953125 215.8359375 C-105.02546875 214.86011719 -105.855625 213.88429688 -106.7109375 212.87890625 C-108.7459808 212.87890625 -110.66089647 214.78873767 -112.2734375 215.87890625 Z M-32.7109375 212.87890625 C-34.03544922 214.31169922 -34.03544922 214.31169922 -35.38671875 215.7734375 C-36.59844733 217.07990122 -37.81072601 218.38585486 -39.0234375 219.69140625 C-39.96727295 220.70787231 -39.96727295 220.70787231 -40.93017578 221.74487305 C-45.75117965 226.91110415 -50.7100448 231.90110046 -55.796875 236.8046875 C-57.93699254 238.65347383 -57.93699254 238.65347383 -57.7109375 240.87890625 C-55.80528064 242.49302163 -55.80528064 242.49302163 -53.3359375 244.13671875 C-51.98242188 245.07451172 -51.98242188 245.07451172 -50.6015625 246.03125 C-49.17070312 247.00771484 -49.17070312 247.00771484 -47.7109375 248.00390625 C-46.75703125 248.66261719 -45.803125 249.32132812 -44.8203125 250 C-42.45458822 251.63234975 -40.08471417 253.25829861 -37.7109375 254.87890625 C-35.07230228 252.24027103 -34.02157439 249.18771385 -32.63671875 245.7890625 C-32.20458321 244.73856972 -32.20458321 244.73856972 -31.76371765 243.66685486 C-31.15678549 242.18597667 -30.55258926 240.70397466 -29.95092773 239.22094727 C-29.02670248 236.94943075 -28.08708596 234.6846976 -27.14648438 232.41992188 C-26.55894262 230.98085756 -25.9723227 229.54141646 -25.38671875 228.1015625 C-25.10347244 227.42335953 -24.82022614 226.74515656 -24.52839661 226.04640198 C-22.868289 222.05126932 -22.868289 222.05126932 -23.7109375 217.87890625 C-25.79906208 216.42245868 -25.79906208 216.42245868 -28.2734375 215.19140625 C-29.51287109 214.53591797 -29.51287109 214.53591797 -30.77734375 213.8671875 C-31.41542969 213.54105469 -32.05351562 213.21492187 -32.7109375 212.87890625 Z M-8.7109375 223.87890625 C-8.94230911 224.46328461 -9.17368073 225.04766296 -9.4120636 225.64974976 C-11.81795933 231.7209346 -14.23700397 237.7867568 -16.66381836 243.84960938 C-17.56825991 246.114205 -18.46931847 248.38015474 -19.36694336 250.64746094 C-20.65636359 253.90269524 -21.95779701 257.15289574 -23.26171875 260.40234375 C-23.6618367 261.42008881 -24.06195465 262.43783386 -24.47419739 263.48641968 C-24.85436508 264.42724396 -25.23453278 265.36806824 -25.6262207 266.33740234 C-25.95709183 267.16791107 -26.28796295 267.9984198 -26.62886047 268.85409546 C-27.7109375 270.87890625 -27.7109375 270.87890625 -30.7109375 272.87890625 C-34.78584502 273.21848188 -36.24095021 273.19223111 -39.7109375 270.87890625 C-43.67219678 271.15209655 -46.55343302 273.65430082 -49.7109375 275.87890625 C-49.05960594 282.81026403 -47.41429921 289.29243283 -45.5859375 296 C-45.27897949 297.14050308 -44.97202148 298.28100616 -44.65576172 299.45606995 C-44.00941339 301.85283889 -43.36043908 304.24890106 -42.70898438 306.64428711 C-41.70810511 310.32682749 -40.71673012 314.01183232 -39.7265625 317.69726562 C-39.09691202 320.02749456 -38.46672285 322.35757801 -37.8359375 324.6875 C-37.53800293 325.7946788 -37.24006836 326.9018576 -36.93310547 328.04258728 C-36.65611816 329.05776932 -36.37913086 330.07295135 -36.09375 331.11889648 C-35.85027832 332.01632065 -35.60680664 332.91374481 -35.35595703 333.83836365 C-34.89210499 335.85143897 -34.89210499 335.85143897 -33.7109375 336.87890625 C-32.33217725 336.97429815 -30.94856834 337.00079247 -29.56651306 336.99916077 C-28.67323807 337.00053543 -27.77996307 337.0019101 -26.85961914 337.00332642 C-25.87203613 336.99973114 -24.88445312 336.99613586 -23.86694336 336.99243164 C-22.3159066 336.99265068 -22.3159066 336.99265068 -20.73353577 336.99287415 C-17.29759664 336.99217452 -13.86171097 336.98437983 -10.42578125 336.9765625 C-8.05066457 336.9746985 -5.6755475 336.97327451 -3.3004303 336.97227478 C2.96482394 336.96844822 9.23005517 336.95861675 15.49530029 336.9475708 C21.8829314 336.93735965 28.27056621 336.9327778 34.65820312 336.92773438 C47.20183468 336.91699461 59.74544308 336.89939669 72.2890625 336.87890625 C72.2890625 322.68890625 72.2890625 308.49890625 72.2890625 293.87890625 C67.0090625 292.55890625 61.7290625 291.23890625 56.2890625 289.87890625 C53.34173251 288.76497429 50.77885014 287.75514563 48.0390625 286.31640625 C47.38558838 285.9805249 46.73211426 285.64464355 46.05883789 285.29858398 C31.06395472 277.17429662 19.69313473 262.97364312 14.2890625 246.87890625 C12.55501551 240.29197002 11.38707266 233.59654604 10.2890625 226.87890625 C9.0103125 226.56953125 7.7315625 226.26015625 6.4140625 225.94140625 C5.33511719 225.68037109 5.33511719 225.68037109 4.234375 225.4140625 C-0.05355358 224.63495611 -4.37272891 224.27093848 -8.7109375 223.87890625 Z M-193.5 247.64453125 C-217.51419103 271.91328968 -211.7109375 304.57824648 -211.7109375 336.87890625 C-176.4009375 336.87890625 -141.0909375 336.87890625 -104.7109375 336.87890625 C-102.2359375 327.74203125 -99.7609375 318.60515625 -97.2109375 309.19140625 C-96.42783203 306.31333252 -95.64472656 303.43525879 -94.83789062 300.4699707 C-94.22215911 298.18584359 -93.60689298 295.90159095 -92.9921875 293.6171875 C-92.66831055 292.43362671 -92.34443359 291.25006592 -92.01074219 290.03063965 C-91.70620117 288.89429077 -91.40166016 287.75794189 -91.08789062 286.5871582 C-90.82141724 285.60342728 -90.55494385 284.61969635 -90.28039551 283.6061554 C-89.71880035 280.91656304 -89.49998542 278.61597966 -89.7109375 275.87890625 C-91.05106542 274.17721389 -91.05106542 274.17721389 -92.9609375 273.00390625 C-93.56421875 272.57335937 -94.1675 272.1428125 -94.7890625 271.69921875 C-97.20937441 270.66615879 -98.27895814 270.98450062 -100.7109375 271.87890625 C-101.7009375 272.37390625 -101.7009375 272.37390625 -102.7109375 272.87890625 C-107.99397795 273.45314978 -107.99397795 273.45314978 -110.73095703 271.26098633 C-113.06485792 268.45311075 -114.19220928 265.85540423 -115.515625 262.453125 C-115.76208771 261.82847855 -116.00855042 261.20383209 -116.26248169 260.56025696 C-117.04683659 258.56600541 -117.81668029 256.5665234 -118.5859375 254.56640625 C-119.09407878 253.26589533 -119.60318616 251.96576145 -120.11328125 250.66601562 C-121.13194631 248.06738276 -122.14534701 245.46678657 -123.15527344 242.86474609 C-125.62495425 236.51675609 -128.17072314 230.19891888 -130.7109375 223.87890625 C-154.02512007 223.87890625 -176.51598419 231.67848484 -193.5 247.64453125 Z M-77.8359375 255.87890625 C-78.82400391 256.59433594 -78.82400391 256.59433594 -79.83203125 257.32421875 C-81.4613873 258.50491154 -83.08656076 259.69137234 -84.7109375 260.87890625 C-80.4496325 265.2959027 -75.88821694 266.63308438 -69.8359375 267.31640625 C-64.75442025 267.144323 -60.26935248 264.97129345 -55.7109375 262.87890625 C-55.7109375 261.88890625 -55.7109375 260.89890625 -55.7109375 259.87890625 C-57.80680836 258.16973832 -59.84079175 256.6763286 -62.0859375 255.19140625 C-62.68921875 254.77568359 -63.2925 254.35996094 -63.9140625 253.93164062 C-70.33769155 249.58498497 -72.00713304 251.60829704 -77.8359375 255.87890625 Z M-74.7109375 281.87890625 C-76.92904369 288.29665128 -78.84996157 294.76054516 -80.62890625 301.3125 C-80.89101395 302.2716481 -81.15312164 303.2307962 -81.423172 304.2190094 C-81.97143124 306.22794178 -82.51842773 308.23721917 -83.06420898 310.24682617 C-83.90292597 313.33292177 -84.74710961 316.41748695 -85.59179688 319.50195312 C-86.12532598 321.4595466 -86.65854051 323.41722585 -87.19140625 325.375 C-87.44448044 326.29889023 -87.69755463 327.22278046 -87.95829773 328.17466736 C-88.18886368 329.02638016 -88.41942963 329.87809296 -88.65698242 330.75561523 C-88.86111252 331.50568344 -89.06524261 332.25575165 -89.27555847 333.02854919 C-89.78728409 334.8865639 -89.78728409 334.8865639 -89.7109375 336.87890625 C-76.5109375 336.87890625 -63.3109375 336.87890625 -49.7109375 336.87890625 C-52.83281563 323.47645191 -52.83281563 323.47645191 -56.25390625 310.16015625 C-56.46783524 309.36532837 -56.68176422 308.57050049 -56.9021759 307.75158691 C-57.34349007 306.11510879 -57.78615576 304.47899449 -58.23022461 302.84326172 C-58.91266894 300.32642099 -59.58833889 297.80781965 -60.26367188 295.2890625 C-60.69751887 293.68348621 -61.13174825 292.07801318 -61.56640625 290.47265625 C-61.76743454 289.72181763 -61.96846283 288.970979 -62.17558289 288.1973877 C-62.89804549 284.75709265 -62.89804549 284.75709265 -64.7109375 281.87890625 C-66.39702716 281.80685114 -68.08594409 281.79504557 -69.7734375 281.81640625 C-70.69253906 281.82542969 -71.61164063 281.83445312 -72.55859375 281.84375 C-73.26886719 281.85535156 -73.97914063 281.86695313 -74.7109375 281.87890625 Z " fill="#000000" transform="translate(294.7109375,92.12109375)"/>
<path d="M0 0 C2.7682485 1.81368005 2.97690674 2.89293126 3.6875 6.1875 C3.790625 7.115625 3.89375 8.04375 4 9 C5.0725 8.896875 6.145 8.79375 7.25 8.6875 C11 9 11 9 13.5 11.0625 C15.47651731 14.93317973 15.29610706 16.88295404 14 21 C9.65220329 24.65454566 5.10553576 24.5378305 -0.3125 24.6875 C-1.56643555 24.73874023 -1.56643555 24.73874023 -2.84570312 24.79101562 C-4.89667772 24.87305461 -6.94831538 24.9382151 -9 25 C-9.33 26.65 -9.66 28.3 -10 30 C-8.62328125 30.03867187 -8.62328125 30.03867187 -7.21875 30.078125 C6.89112271 30.73026197 6.89112271 30.73026197 12 35 C15.90391305 39.33550143 17.79205073 43.95263003 18.1328125 49.765625 C17.81430075 55.12411675 15.99254501 58.85857324 12.5 62.875 C7.64705882 67 7.64705882 67 4 67 C3.896875 68.093125 3.79375 69.18625 3.6875 70.3125 C3 74 3 74 1.9375 75.9375 C-1.25215408 77.68666514 -4.45623562 77.53156466 -8 77 C-10 75.875 -10 75.875 -11 74 C-11.1875 70.8125 -11.1875 70.8125 -11 68 C-12.60875 68.0928125 -12.60875 68.0928125 -14.25 68.1875 C-18 68 -18 68 -20.375 66.8125 C-22.49058043 64.45281414 -22.92617173 63.17461572 -23 60 C-20.72289157 54.36144578 -20.72289157 54.36144578 -18 53 C-16.5534758 52.84932786 -15.1012066 52.75138964 -13.6484375 52.68359375 C-12.37226563 52.62075195 -12.37226563 52.62075195 -11.0703125 52.55664062 C-10.18085938 52.51732422 -9.29140625 52.47800781 -8.375 52.4375 C-7.4778125 52.39431641 -6.580625 52.35113281 -5.65625 52.30664062 C-3.43765717 52.20043139 -1.2189512 52.09838806 1 52 C1.33 51.01 1.66 50.02 2 49 C1.67 48.34 1.34 47.68 1 47 C-1.5494014 46.68195002 -1.5494014 46.68195002 -4.5625 46.625 C-10.94265515 46.1779345 -15.89947137 45.03076673 -20.5625 40.47265625 C-25.23470447 35.04387322 -25.34687445 31.27286107 -25.27734375 24.2734375 C-24.88444206 19.63609075 -23.92364069 17.61608191 -21 14 C-17.99521878 11.6697615 -15.59744541 10.19914847 -12 9 C-11.690625 7.88625 -11.38125 6.7725 -11.0625 5.625 C-10 2 -10 2 -8.25 0 C-5.1045452 -1.39797991 -3.26040842 -0.97118549 0 0 Z " fill="#000000" transform="translate(378,279)"/>
</svg>
