<?xml version="1.0" encoding="UTF-8"?>
<!DOCTYPE svg PUBLIC "-//W3C//DTD SVG 1.1//EN" "http://www.w3.org/Graphics/SVG/1.1/DTD/svg11.dtd">
<svg xmlns="http://www.w3.org/2000/svg" version="1.1" width="512px" height="512px" style="shape-rendering:geometricPrecision; text-rendering:geometricPrecision; image-rendering:optimizeQuality; fill-rule:evenodd; clip-rule:evenodd" xmlns:xlink="http://www.w3.org/1999/xlink">
<g><path style="opacity:0.972" fill="#000000" d="M 243.5,95.5 C 283.501,95.3333 323.501,95.5 363.5,96C 382.283,102.369 390.283,115.536 387.5,135.5C 382.167,135.5 376.833,135.5 371.5,135.5C 372.991,125.316 369.324,117.816 360.5,113C 341.541,111.865 322.541,111.365 303.5,111.5C 284.459,111.365 265.459,111.865 246.5,113C 237.676,117.816 234.009,125.316 235.5,135.5C 230.167,135.5 224.833,135.5 219.5,135.5C 216.841,115.449 224.841,102.115 243.5,95.5 Z"/></g>
<g><path style="opacity:0.933" fill="#000000" d="M 116.5,131.5 C 151.116,128.377 174.283,143.044 186,175.5C 191.858,202.935 183.691,225.102 161.5,242C 139.71,254.262 117.71,254.596 95.5,243C 69.775,224.492 61.6083,199.992 71,169.5C 79.6903,148.968 94.857,136.302 116.5,131.5 Z M 118.5,148.5 C 141.49,145.907 157.99,154.907 168,175.5C 174.948,200.012 167.448,218.512 145.5,231C 122.567,239.468 104.067,233.634 90,213.5C 79.2604,190.97 83.4271,171.803 102.5,156C 107.615,152.807 112.948,150.307 118.5,148.5 Z"/></g>
<g><path style="opacity:0.976" fill="#000000" d="M 511.5,165.5 C 511.5,182.5 511.5,199.5 511.5,216.5C 509.157,221.686 505.491,225.852 500.5,229C 462.435,239.224 424.269,249.058 386,258.5C 384.395,257.899 383.062,256.899 382,255.5C 381.649,250.802 381.149,246.136 380.5,241.5C 418.369,232.783 456.036,223.283 493.5,213C 494.191,211.933 494.691,210.766 495,209.5C 495.667,197.167 495.667,184.833 495,172.5C 494.691,171.234 494.191,170.067 493.5,169C 395.221,167.84 296.888,167.007 198.5,166.5C 196.567,161.468 194.234,156.635 191.5,152C 293.5,151.333 395.5,151.333 497.5,152C 504.019,154.687 508.686,159.187 511.5,165.5 Z"/></g>
<g><path style="opacity:0.95" fill="#000000" d="M 431.5,187.5 C 439.507,187.334 447.507,187.5 455.5,188C 457.333,188.5 458.5,189.667 459,191.5C 459.667,194.167 459.667,196.833 459,199.5C 458.5,201.333 457.333,202.5 455.5,203C 447.5,203.667 439.5,203.667 431.5,203C 428.484,201.471 427.151,198.971 427.5,195.5C 427.282,191.934 428.616,189.268 431.5,187.5 Z"/></g>
<g><path style="opacity:0.941" fill="#000000" d="M 293.5,211.5 C 300.175,211.334 306.842,211.5 313.5,212C 320.909,214.408 326.076,219.242 329,226.5C 337.597,223.264 345.763,224.097 353.5,229C 359.232,233.387 363.398,238.887 366,245.5C 366.974,251.187 366.474,256.687 364.5,262C 371.758,264.924 376.592,270.091 379,277.5C 379.667,284.167 379.667,290.833 379,297.5C 376.592,304.909 371.758,310.076 364.5,313C 367.736,321.597 366.903,329.763 362,337.5C 357.613,343.232 352.113,347.398 345.5,350C 339.813,350.974 334.313,350.474 329,348.5C 326.076,355.758 320.909,360.592 313.5,363C 306.833,363.667 300.167,363.667 293.5,363C 286.091,360.592 280.924,355.758 278,348.5C 260.368,352.85 248.035,346.516 241,329.5C 240.026,323.813 240.526,318.313 242.5,313C 235.242,310.076 230.408,304.909 228,297.5C 227.333,290.5 227.333,283.5 228,276.5C 230.833,269.667 235.667,264.833 242.5,262C 239.264,253.403 240.097,245.237 245,237.5C 249.387,231.768 254.887,227.602 261.5,225C 267.187,224.026 272.687,224.526 278,226.5C 281.106,219.225 286.272,214.225 293.5,211.5 Z M 299.5,227.5 C 310.364,225.863 315.197,230.53 314,241.5C 317.695,243.515 321.528,245.349 325.5,247C 327.167,247.667 328.833,247.667 330.5,247C 332.167,245.333 333.833,243.667 335.5,242C 337.5,241.333 339.5,241.333 341.5,242C 344.98,244.799 347.647,248.133 349.5,252C 347.902,255.92 345.902,259.586 343.5,263C 345.12,267.868 347.12,272.535 349.5,277C 353.25,277.26 356.916,277.927 360.5,279C 364.5,284.667 364.5,290.333 360.5,296C 356.916,297.073 353.25,297.74 349.5,298C 347.485,301.695 345.651,305.528 344,309.5C 343.333,311.167 343.333,312.833 344,314.5C 348.144,317.116 349.811,320.783 349,325.5C 346.5,328 344,330.5 341.5,333C 339.5,333.667 337.5,333.667 335.5,333C 333.519,330.338 331.019,328.505 328,327.5C 323.132,329.12 318.465,331.12 314,333.5C 313.74,337.25 313.073,340.916 312,344.5C 306.333,348.5 300.667,348.5 295,344.5C 293.927,340.916 293.26,337.25 293,333.5C 289.305,331.485 285.472,329.651 281.5,328C 279.833,327.333 278.167,327.333 276.5,328C 274.833,329.667 273.167,331.333 271.5,333C 269.5,333.667 267.5,333.667 265.5,333C 262.02,330.201 259.353,326.867 257.5,323C 259.098,319.08 261.098,315.414 263.5,312C 261.88,307.132 259.88,302.465 257.5,298C 253.75,297.74 250.084,297.073 246.5,296C 242.5,290.333 242.5,284.667 246.5,279C 250.084,277.927 253.75,277.26 257.5,277C 259.515,273.305 261.349,269.472 263,265.5C 263.667,263.833 263.667,262.167 263,260.5C 258.856,257.884 257.189,254.217 258,249.5C 260.5,247 263,244.5 265.5,242C 267.5,241.333 269.5,241.333 271.5,242C 273.481,244.662 275.981,246.495 279,247.5C 283.868,245.88 288.535,243.88 293,241.5C 293.26,237.75 293.927,234.084 295,230.5C 296.409,229.219 297.909,228.219 299.5,227.5 Z M 299.5,276.5 C 310.318,275.817 315.151,280.817 314,291.5C 310.96,297.603 306.126,299.769 299.5,298C 293.397,294.96 291.231,290.126 293,283.5C 294.694,280.642 296.861,278.309 299.5,276.5 Z"/></g>
<g><path style="opacity:0.973" fill="#000000" d="M -0.5,398.5 C -0.5,367.167 -0.5,335.833 -0.5,304.5C 7.76935,267.736 30.6027,246.069 68,239.5C 73.9129,245.414 80.4129,250.58 87.5,255C 66.0924,254.354 47.5924,261.187 32,275.5C 21.5592,287.48 16.2259,301.48 16,317.5C 15.3333,342.167 15.3333,366.833 16,391.5C 16.5,396 19,398.5 23.5,399C 92.8333,399.667 162.167,399.667 231.5,399C 236,398.5 238.5,396 239,391.5C 239.333,378.833 239.667,366.167 240,353.5C 244.312,357.826 249.312,361.159 255,363.5C 255.167,369.333 255.333,375.167 255.5,381C 259.06,397.215 253.393,408.548 238.5,415C 164.5,415.667 90.5,415.667 16.5,415C 8.31563,411.981 2.64896,406.481 -0.5,398.5 Z"/></g>
<g><path style="opacity:0.902" fill="#000000" d="M 185.5,239.5 C 200.06,241.288 213.06,246.621 224.5,255.5C 220.913,259.692 217.58,264.025 214.5,268.5C 200.305,259.198 184.638,254.698 167.5,255C 174.504,250.998 180.504,245.832 185.5,239.5 Z"/></g>
<g><path style="opacity:0.992" fill="#000000" d="M 502.5,243.5 C 503.665,294.998 503.832,346.665 503,398.5C 500.167,406.667 494.667,412.167 486.5,415C 412.164,415.833 337.831,415.667 263.5,414.5C 266.895,410.046 268.895,405.046 269.5,399.5C 339.501,399.667 409.501,399.5 479.5,399C 484,398.5 486.5,396 487,391.5C 487.333,343.833 487.667,296.167 488,248.5C 492.949,246.896 497.782,245.229 502.5,243.5 Z"/></g>
<g><path style="opacity:0.927" fill="#000000" d="M 295.5,259.5 C 321.323,257.823 333.157,269.823 331,295.5C 324.671,311.752 312.838,318.252 295.5,315C 279.248,308.671 272.748,296.838 276,279.5C 279.351,269.65 285.851,262.983 295.5,259.5 Z M 299.5,276.5 C 296.861,278.309 294.694,280.642 293,283.5C 291.231,290.126 293.397,294.96 299.5,298C 306.126,299.769 310.96,297.603 314,291.5C 315.151,280.817 310.318,275.817 299.5,276.5 Z"/></g>
<g><path style="opacity:0.927" fill="#000000" d="M 107.5,264.5 C 113.1,265.686 118.767,266.353 124.5,266.5C 119.742,288.035 114.742,309.535 109.5,331C 114.559,338.232 120.559,344.732 127.5,350.5C 134.441,344.732 140.441,338.232 145.5,331C 140.258,309.535 135.258,288.035 130.5,266.5C 136.233,266.353 141.9,265.686 147.5,264.5C 152.19,286.261 157.357,307.927 163,329.5C 163.667,332.833 163.667,336.167 163,339.5C 152.803,349.363 142.97,359.529 133.5,370C 129.5,372 125.5,372 121.5,370C 112.03,359.529 102.197,349.363 92,339.5C 91.3333,336.167 91.3333,332.833 92,329.5C 97.6434,307.927 102.81,286.261 107.5,264.5 Z"/></g>
<g><path style="opacity:0.95" fill="#000000" d="M 431.5,359.5 C 439.507,359.334 447.507,359.5 455.5,360C 457.333,360.5 458.5,361.667 459,363.5C 459.667,366.167 459.667,368.833 459,371.5C 458.5,373.333 457.333,374.5 455.5,375C 447.5,375.667 439.5,375.667 431.5,375C 428.484,373.471 427.151,370.971 427.5,367.5C 427.282,363.934 428.616,361.268 431.5,359.5 Z"/></g>
</svg>
