<?xml version="1.0" standalone="no"?>
<!DOCTYPE svg PUBLIC "-//W3C//DTD SVG 20010904//EN"
 "http://www.w3.org/TR/2001/REC-SVG-20010904/DTD/svg10.dtd">
<svg version="1.0" xmlns="http://www.w3.org/2000/svg"
 width="512.000000pt" height="512.000000pt" viewBox="0 0 512.000000 512.000000"
 preserveAspectRatio="xMidYMid meet">
<metadata>
Created by potrace 1.16, written by Peter Selinger 2001-2019
</metadata>
<g transform="translate(0.000000,512.000000) scale(0.100000,-0.100000)"
fill="#000000" stroke="none">
<path d="M2030 4894 c-500 -67 -983 -307 -1345 -669 -370 -370 -602 -839 -670
-1358 -17 -137 -20 -450 -5 -577 89 -722 501 -1362 1117 -1736 284 -173 584
-277 933 -325 140 -20 468 -17 615 5 403 60 763 211 1095 458 126 94 358 328
453 455 197 267 323 529 402 837 54 215 69 341 69 591 0 201 -2 224 -21 266
-28 62 -72 92 -142 97 -62 4 -105 -17 -145 -71 -20 -27 -21 -42 -22 -265 -1
-169 -6 -266 -18 -336 -75 -453 -275 -839 -597 -1151 -719 -696 -1816 -765
-2614 -165 -396 299 -666 726 -770 1220 -36 170 -46 485 -21 664 62 441 260
839 575 1154 317 316 715 516 1151 577 132 18 389 21 517 5 275 -34 563 -133
792 -272 79 -49 91 -53 148 -53 66 0 98 16 136 67 27 36 33 114 14 160 -22 52
-85 95 -282 193 -251 125 -474 194 -748 230 -147 19 -471 18 -617 -1z"/>
<path d="M4885 4684 c-16 -9 -535 -521 -1152 -1137 l-1123 -1122 -432 431
c-238 238 -443 437 -455 443 -37 19 -122 13 -160 -10 -67 -42 -92 -143 -54
-217 19 -36 971 -993 1021 -1026 31 -20 121 -21 158 -2 15 8 567 555 1226
1215 l1200 1200 4 65 c4 54 1 71 -18 101 -41 67 -145 95 -215 59z"/>
</g>
</svg>
