<?xml version="1.0" encoding="UTF-8"?>
<!DOCTYPE svg PUBLIC "-//W3C//DTD SVG 1.1//EN" "http://www.w3.org/Graphics/SVG/1.1/DTD/svg11.dtd">
<svg xmlns="http://www.w3.org/2000/svg" version="1.1" width="512px" height="512px" style="shape-rendering:geometricPrecision; text-rendering:geometricPrecision; image-rendering:optimizeQuality; fill-rule:evenodd; clip-rule:evenodd" xmlns:xlink="http://www.w3.org/1999/xlink">
<g><path style="opacity:0.961" fill="#000000" d="M 105.5,-0.5 C 188.833,-0.5 272.167,-0.5 355.5,-0.5C 357.355,0.689603 359.188,2.02294 361,3.5C 390.629,37.4643 420.629,71.131 451,104.5C 454.154,107.652 456.487,111.319 458,115.5C 458.984,230.856 458.651,346.189 457,461.5C 449.859,488.627 432.692,505.294 405.5,511.5C 305.5,511.5 205.5,511.5 105.5,511.5C 78.3079,505.294 61.1412,488.627 54,461.5C 52.8468,392.856 52.3468,324.19 52.5,255.5C 52.3468,186.81 52.8468,118.144 54,49.5C 61.1412,22.3727 78.3079,5.70607 105.5,-0.5 Z M 112.5,20.5 C 188.5,20.5 264.5,20.5 340.5,20.5C 340.333,54.1683 340.5,87.835 341,121.5C 342.868,125.521 346.035,127.687 350.5,128C 379.165,128.5 407.831,128.667 436.5,128.5C 436.667,235.167 436.5,341.834 436,448.5C 435.19,462.957 429.024,474.457 417.5,483C 412.828,485.837 407.828,487.837 402.5,489C 303.123,489.991 203.79,489.657 104.5,488C 86.319,481.142 76.4856,467.976 75,448.5C 74.3333,319.5 74.3333,190.5 75,61.5C 77.4689,38.5091 89.9689,24.8424 112.5,20.5 Z M 362.5,39.5 C 382.116,61.4545 401.782,83.4545 421.5,105.5C 401.845,106.5 382.178,106.833 362.5,106.5C 362.5,84.1667 362.5,61.8333 362.5,39.5 Z"/></g>
<g><path style="opacity:0.916" fill="#000000" d="M 128.5,105.5 C 159.502,105.333 190.502,105.5 221.5,106C 228.49,106.324 232.157,109.99 232.5,117C 232.29,123.542 228.957,127.209 222.5,128C 190.833,128.667 159.167,128.667 127.5,128C 117.723,124.932 115.223,118.766 120,109.5C 122.564,107.376 125.397,106.042 128.5,105.5 Z"/></g>
<g><path style="opacity:0.959" fill="#000000" d="M 124.5,176.5 C 210.167,176.333 295.834,176.5 381.5,177C 388.312,181.736 389.645,187.569 385.5,194.5C 383.705,196.703 381.371,197.869 378.5,198C 294.5,198.667 210.5,198.667 126.5,198C 118.454,195.073 115.954,189.573 119,181.5C 120.406,179.256 122.239,177.59 124.5,176.5 Z"/></g>
<g><path style="opacity:0.959" fill="#000000" d="M 125.5,228.5 C 210.167,228.333 294.834,228.5 379.5,229C 384.853,230.69 387.853,234.357 388.5,240C 387.494,244.686 384.828,248.019 380.5,250C 295.167,250.667 209.833,250.667 124.5,250C 117.577,246.259 115.744,240.759 119,233.5C 120.965,231.45 123.132,229.783 125.5,228.5 Z"/></g>
<g><path style="opacity:0.959" fill="#000000" d="M 124.5,280.5 C 209.834,280.333 295.167,280.5 380.5,281C 385.309,282.617 387.975,285.95 388.5,291C 387.853,296.643 384.853,300.31 379.5,302C 294.833,302.667 210.167,302.667 125.5,302C 118.064,298.706 115.897,293.206 119,285.5C 120.73,283.598 122.563,281.931 124.5,280.5 Z"/></g>
<g><path style="opacity:0.959" fill="#000000" d="M 124.5,332.5 C 210.167,332.333 295.834,332.5 381.5,333C 388.312,337.736 389.645,343.569 385.5,350.5C 383.705,352.703 381.371,353.869 378.5,354C 294.5,354.667 210.5,354.667 126.5,354C 118.454,351.073 115.954,345.573 119,337.5C 120.406,335.256 122.239,333.59 124.5,332.5 Z"/></g>
<g><path style="opacity:0.916" fill="#000000" d="M 127.5,382.5 C 159.168,382.333 190.835,382.5 222.5,383C 232.301,386.11 234.801,392.277 230,401.5C 227.656,403.774 224.822,404.941 221.5,405C 190.5,405.667 159.5,405.667 128.5,405C 118.01,402.514 115.176,396.347 120,386.5C 122.255,384.501 124.755,383.168 127.5,382.5 Z"/></g>
</svg>
