<?xml version="1.0" encoding="UTF-8"?>
<!DOCTYPE svg PUBLIC "-//W3C//DTD SVG 1.1//EN" "http://www.w3.org/Graphics/SVG/1.1/DTD/svg11.dtd">
<svg xmlns="http://www.w3.org/2000/svg" version="1.1" width="512px" height="512px" style="shape-rendering:geometricPrecision; text-rendering:geometricPrecision; image-rendering:optimizeQuality; fill-rule:evenodd; clip-rule:evenodd" xmlns:xlink="http://www.w3.org/1999/xlink">
<g><path style="opacity:0.928" fill="#000000" d="M 511.5,236.5 C 511.5,240.5 511.5,244.5 511.5,248.5C 509.744,252.093 507.077,254.926 503.5,257C 488.912,262.863 474.245,268.53 459.5,274C 453.279,275.553 447.945,274.053 443.5,269.5C 433.783,275.351 424.45,281.685 415.5,288.5C 420.926,308.148 414.259,321.648 395.5,329C 390.527,330.556 385.527,330.89 380.5,330C 376.275,349.244 364.442,358.077 345,356.5C 340.902,379.431 327.402,388.765 304.5,384.5C 299.115,404.532 286.115,413.032 265.5,410C 257.871,406.854 250.871,402.687 244.5,397.5C 233.197,414.436 218.531,418.269 200.5,409C 193.811,403.788 190.144,396.955 189.5,388.5C 171.735,388.638 161.735,379.971 159.5,362.5C 142.157,362.814 132.157,354.481 129.5,337.5C 110.904,337.235 100.571,327.902 98.5,309.5C 98.6689,304.322 100.002,299.489 102.5,295C 90.5049,286.667 78.1716,278.834 65.5,271.5C 58.9716,275.28 52.305,275.447 45.5,272C 32.1667,266.667 18.8333,261.333 5.5,256C 2.87922,253.886 0.879222,251.386 -0.5,248.5C -0.5,244.5 -0.5,240.5 -0.5,236.5C 17.1664,193.814 34.3331,150.814 51,107.5C 53.812,100.921 58.812,97.2539 66,96.5C 83.1202,102.208 99.9535,108.708 116.5,116C 121.428,120.36 123.761,125.86 123.5,132.5C 129.848,135.84 136.514,138.34 143.5,140C 164.591,140.045 185.591,141.378 206.5,144C 210.596,144.857 214.596,146.024 218.5,147.5C 223.98,143.188 229.313,138.688 234.5,134C 242.871,128.996 251.871,127.33 261.5,129C 272.318,130.358 282.985,132.358 293.5,135C 295.429,138.256 295.929,141.756 295,145.5C 293.786,147.049 292.286,148.215 290.5,149C 278.663,147.881 266.829,146.381 255,144.5C 250.495,144.446 246.328,145.613 242.5,148C 218.424,171.925 192.758,193.759 165.5,213.5C 169.489,219.505 175.155,223.005 182.5,224C 194.898,223.81 206.232,220.143 216.5,213C 223.167,207.667 229.833,202.333 236.5,197C 243.538,194.548 250.204,195.215 256.5,199C 280.394,223.521 309.394,233.521 343.5,229C 364.026,244.36 384.693,259.526 405.5,274.5C 415.969,267.863 426.302,261.03 436.5,254C 422.651,218.283 408.318,182.783 393.5,147.5C 383.474,151.898 373.141,155.398 362.5,158C 347.963,158.967 333.63,157.634 319.5,154C 313.271,149.829 312.938,145.163 318.5,140C 319.873,139.125 321.373,138.625 323,138.5C 335.351,141.456 347.851,142.622 360.5,142C 369.704,139.398 378.704,136.231 387.5,132.5C 387.239,125.86 389.572,120.36 394.5,116C 411.047,108.708 427.88,102.208 445,96.5C 452.188,97.2539 457.188,100.921 460,107.5C 466.333,123.5 472.667,139.5 479,155.5C 481.167,165.333 477.333,169.167 467.5,167C 466.667,166.167 465.833,165.333 465,164.5C 457.999,147.66 451.499,130.66 445.5,113.5C 431.544,118.042 417.877,123.375 404.5,129.5C 421.578,172.574 438.745,215.574 456,258.5C 468.07,253.475 480.237,248.642 492.5,244C 493.91,243.632 494.91,242.799 495.5,241.5C 488.886,225.273 482.553,208.94 476.5,192.5C 477.469,186.017 481.135,183.517 487.5,185C 489.286,185.785 490.786,186.951 492,188.5C 498.038,204.8 504.538,220.8 511.5,236.5 Z M 65.5,113.5 C 79.48,118.049 93.1467,123.382 106.5,129.5C 89.4221,172.574 72.2554,215.574 55,258.5C 42.9296,253.475 30.763,248.642 18.5,244C 17.09,243.632 16.09,242.799 15.5,241.5C 32.7408,199.025 49.4075,156.358 65.5,113.5 Z M 116.5,147.5 C 124.792,151.43 133.458,154.264 142.5,156C 158.847,156.355 175.18,157.021 191.5,158C 196.069,158.266 200.403,159.266 204.5,161C 189.071,174.876 172.737,187.542 155.5,199C 146.165,212.32 148.165,223.653 161.5,233C 174.092,240.543 187.425,242.21 201.5,238C 217.815,231.993 232.315,223.16 245,211.5C 262.865,229.35 284.365,240.183 309.5,244C 318.079,244.816 326.579,244.649 335,243.5C 356.87,258.77 378.203,274.77 399,291.5C 404.206,303.723 400.373,311.39 387.5,314.5C 383.121,313.477 379.121,311.644 375.5,309C 365.347,300.758 355.014,292.758 344.5,285C 333.84,283.154 330.34,287.32 334,297.5C 343.333,304.833 352.667,312.167 362,319.5C 366.385,329.903 363.219,337.069 352.5,341C 349.442,341.458 346.442,341.124 343.5,340C 333.215,332.716 323.215,325.05 313.5,317C 303.655,312.988 299.155,316.154 300,326.5C 308.33,333.659 316.83,340.659 325.5,347.5C 330.823,359.522 326.989,367.189 314,370.5C 308.899,369.533 304.399,367.366 300.5,364C 293.833,358.667 287.167,353.333 280.5,348C 270.32,344.34 266.154,347.84 268,358.5C 273.815,363.738 279.815,368.738 286,373.5C 289.859,382.584 287.359,389.418 278.5,394C 275.167,394.667 271.833,394.667 268.5,394C 263.774,391.31 259.44,388.144 255.5,384.5C 264.707,373.357 265.874,361.357 259,348.5C 252.5,340.333 244,336 233.5,335.5C 229.688,319.092 219.354,311.092 202.5,311.5C 200.294,293.967 190.294,285.3 172.5,285.5C 170.006,269.84 160.839,261.174 145,259.5C 139.495,259.867 134.329,261.367 129.5,264C 123.6,269.9 117.767,275.733 112,281.5C 99.0195,273.345 86.1862,265.012 73.5,256.5C 88.0358,220.222 102.369,183.889 116.5,147.5 Z M 143.5,275.5 C 153.158,276.648 157.324,281.981 156,291.5C 149.212,300.623 142.046,309.456 134.5,318C 127.17,323.114 121.003,321.948 116,314.5C 114.75,311.923 114.416,309.257 115,306.5C 121.759,296.171 129.592,286.671 138.5,278C 140.315,277.243 141.981,276.41 143.5,275.5 Z M 172.5,301.5 C 183.544,301.689 188.044,307.022 186,317.5C 179.212,326.623 172.046,335.456 164.5,344C 154.181,349.175 147.515,346.175 144.5,335C 145,333.5 145.5,332 146,330.5C 151,324.167 156,317.833 161,311.5C 164.458,307.528 168.292,304.195 172.5,301.5 Z M 201.5,327.5 C 212.316,326.156 217.483,330.823 217,341.5C 209.935,352.234 201.768,362.067 192.5,371C 180.415,373.703 174.915,368.87 176,356.5C 183.708,345.97 192.208,336.304 201.5,327.5 Z M 233.5,352.5 C 245.024,353.51 249.191,359.51 246,370.5C 238.872,379.297 231.372,387.797 223.5,396C 215.584,399.722 209.751,397.555 206,389.5C 205.333,387.167 205.333,384.833 206,382.5C 212.287,373.878 218.953,365.545 226,357.5C 228.426,355.548 230.926,353.881 233.5,352.5 Z"/></g>
</svg>
