<?xml version="1.0" encoding="UTF-8"?>
<!DOCTYPE svg PUBLIC "-//W3C//DTD SVG 1.1//EN" "http://www.w3.org/Graphics/SVG/1.1/DTD/svg11.dtd">
<svg xmlns="http://www.w3.org/2000/svg" version="1.1" width="512px" height="512px" style="shape-rendering:geometricPrecision; text-rendering:geometricPrecision; image-rendering:optimizeQuality; fill-rule:evenodd; clip-rule:evenodd" xmlns:xlink="http://www.w3.org/1999/xlink">
<g><path style="opacity:0.972" fill="#000000" d="M 119.5,29.5 C 128.857,29.1684 138.19,29.5017 147.5,30.5C 158,52.8333 168.5,75.1667 179,97.5C 179.5,74.8358 179.667,52.1691 179.5,29.5C 189.833,29.5 200.167,29.5 210.5,29.5C 210.5,79.8333 210.5,130.167 210.5,180.5C 201.167,180.5 191.833,180.5 182.5,180.5C 172.566,157.294 162.066,134.294 151,111.5C 150.5,134.498 150.333,157.498 150.5,180.5C 140.167,180.5 129.833,180.5 119.5,180.5C 119.5,130.167 119.5,79.8333 119.5,29.5 Z"/></g>
<g><path style="opacity:0.961" fill="#000000" d="M 276.5,29.5 C 309.46,27.4663 327.793,42.7997 331.5,75.5C 321.167,75.5 310.833,75.5 300.5,75.5C 298.119,62.9544 290.785,58.4544 278.5,62C 275.96,64.2047 273.793,66.7047 272,69.5C 271.333,92.8333 271.333,116.167 272,139.5C 278.214,150.714 286.38,152.381 296.5,144.5C 298.194,142.446 299.361,140.112 300,137.5C 300.499,131.843 300.666,126.176 300.5,120.5C 295.5,120.5 290.5,120.5 285.5,120.5C 285.5,110.167 285.5,99.8333 285.5,89.5C 300.833,89.5 316.167,89.5 331.5,89.5C 331.667,106.503 331.5,123.503 331,140.5C 326.283,165.716 311.117,179.05 285.5,180.5C 262.138,178.965 247.304,166.965 241,144.5C 240.333,118.167 240.333,91.8333 241,65.5C 245.655,46.3458 257.488,34.3458 276.5,29.5 Z"/></g>
<g><path style="opacity:0.964" fill="#000000" d="M 397.5,29.5 C 417.631,27.1554 433.464,34.1554 445,50.5C 448.127,55.419 450.127,60.7523 451,66.5C 451.965,93.549 451.631,120.549 450,147.5C 440.072,173.719 421.239,184.219 393.5,179C 375.182,173.013 364.348,160.513 361,141.5C 360.333,117.167 360.333,92.8333 361,68.5C 365.12,47.8826 377.287,34.8826 397.5,29.5 Z M 401.5,60.5 C 410.198,59.2641 416.365,62.5974 420,70.5C 420.667,93.5 420.667,116.5 420,139.5C 414.423,149.803 406.589,151.97 396.5,146C 394.57,143.742 393.07,141.242 392,138.5C 391.333,116.167 391.333,93.8333 392,71.5C 393.599,66.406 396.766,62.7393 401.5,60.5 Z"/></g>
<g><path style="opacity:0.964" fill="#000000" d="M 511.5,230.5 C 511.5,237.167 511.5,243.833 511.5,250.5C 509.439,257.288 506.273,263.622 502,269.5C 461.833,309.667 421.667,349.833 381.5,390C 324.5,390.333 267.5,390.667 210.5,391C 176.982,421.352 143.316,451.519 109.5,481.5C 72.8111,440.48 36.1444,399.48 -0.5,358.5C -0.5,357.5 -0.5,356.5 -0.5,355.5C 49.2912,316.881 98.9579,278.048 148.5,239C 206.833,238.333 265.167,238.333 323.5,239C 340.638,242.062 352.638,251.562 359.5,267.5C 364.467,268.662 369.467,268.829 374.5,268C 396.167,246.333 417.833,224.667 439.5,203C 458.071,192.713 476.404,193.046 494.5,204C 503.102,211.058 508.769,219.892 511.5,230.5 Z M 464.5,225.5 C 479.135,227.768 483.635,235.768 478,249.5C 441.5,286 405,322.5 368.5,359C 311.5,359.333 254.5,359.667 197.5,360C 189.333,367.5 181.167,375 173,382.5C 152,358.833 131,335.167 110,311.5C 109.333,310.833 109.333,310.167 110,309.5C 126.5,296.333 143,283.167 159.5,270C 213.167,269.333 266.833,269.333 320.5,270C 331.881,275.801 334.048,283.968 327,294.5C 325.065,296.102 322.899,297.269 320.5,298C 289.168,298.5 257.835,298.667 226.5,298.5C 226.5,308.833 226.5,319.167 226.5,329.5C 259.502,329.667 292.502,329.5 325.5,329C 341.741,325.376 353.074,315.876 359.5,300.5C 368.816,299.668 378.149,299.168 387.5,299C 410.833,275.667 434.167,252.333 457.5,229C 459.713,227.384 462.047,226.217 464.5,225.5 Z M 83.5,329.5 C 105.82,353.823 127.82,378.49 149.5,403.5C 137.175,414.99 124.675,426.323 112,437.5C 88.9413,412.278 66.4413,386.611 44.5,360.5C 57.7517,350.388 70.7517,340.055 83.5,329.5 Z"/></g>
</svg>
