<?xml version="1.0" ?><!DOCTYPE svg  PUBLIC '-//W3C//DTD SVG 1.1//EN'  'http://www.w3.org/Graphics/SVG/1.1/DTD/svg11.dtd'><svg height="8.4666mm" style="shape-rendering:geometricPrecision; text-rendering:geometricPrecision; image-rendering:optimizeQuality; fill-rule:evenodd; clip-rule:evenodd" version="1.1" viewBox="0 0 846.66 846.66" width="8.4666mm" xml:space="preserve" xmlns="http://www.w3.org/2000/svg" xmlns:xlink="http://www.w3.org/1999/xlink"><defs><style type="text/css">
   <![CDATA[
    .fil0 {fill:black;fill-rule:nonzero}
   ]]>
  </style></defs><g id="Layer_x0020_1"><path class="fil0" d="M193.84 80.63l438.27 0 0 -30.51 -487.37 0 0 674.49 28.39 0 0 -623.27c0,-11.44 9.27,-20.71 20.71,-20.71zm479.7 0l49.09 0c11.44,0 20.72,9.27 20.72,20.71l0 715.91c0,11.44 -9.28,20.71 -20.72,20.71l-528.79 0c-11.44,0 -20.71,-9.27 -20.71,-20.71l0 -51.22 -49.1 0c-11.44,0 -20.71,-9.27 -20.71,-20.71l0 -715.91c0,-11.44 9.27,-20.71 20.71,-20.71l528.79 0c11.44,0 20.72,9.27 20.72,20.71l0 51.22zm-360.21 563.85c-27.24,0 -27.24,-41.42 0,-41.42l289.81 0c27.25,0 27.25,41.42 0,41.42l-289.81 0zm0 89.38c-27.24,0 -27.24,-41.42 0,-41.42l289.81 0c27.25,0 27.25,41.42 0,41.42l-289.81 0zm0 -268.14c-27.24,0 -27.24,-41.42 0,-41.42l289.81 0c27.25,0 27.25,41.42 0,41.42l-289.81 0zm0 89.38c-27.24,0 -27.24,-41.42 0,-41.42l289.81 0c27.25,0 27.25,41.42 0,41.42l-289.81 0zm21.15 -370.37l247.51 0c11.44,0 20.71,9.27 20.71,20.71l0 150.2c0,11.43 -9.27,20.71 -20.71,20.71l-247.51 0c-11.43,0 -20.71,-9.28 -20.71,-20.71l0 -150.2c0,-11.44 9.28,-20.71 20.71,-20.71zm226.8 41.42l-206.09 0 0 108.78 206.09 0 0 -108.78zm140.64 -104.1l-487.37 0 0 674.49 487.37 0 0 -674.49z"/></g></svg>