<?xml version="1.0" standalone="no"?>
<!DOCTYPE svg PUBLIC "-//W3C//DTD SVG 20010904//EN"
 "http://www.w3.org/TR/2001/REC-SVG-20010904/DTD/svg10.dtd">
<svg version="1.0" xmlns="http://www.w3.org/2000/svg"
 width="512.000000pt" height="512.000000pt" viewBox="0 0 512.000000 512.000000"
 preserveAspectRatio="xMidYMid meet">
<metadata>
Created by potrace 1.16, written by Peter Selinger 2001-2019
</metadata>
<g transform="translate(0.000000,512.000000) scale(0.100000,-0.100000)"
fill="#000000" stroke="none">
<path d="M66 5101 c-15 -10 -37 -32 -47 -47 -18 -28 -19 -59 -19 -679 0 -634
1 -651 20 -683 12 -19 38 -41 63 -52 40 -19 72 -20 667 -20 595 0 627 1 667
20 25 11 51 33 63 52 19 32 20 49 20 683 0 620 -1 651 -19 679 -10 15 -32 37
-47 47 -28 18 -59 19 -684 19 -625 0 -656 -1 -684 -19z m1134 -726 l0 -445
-450 0 -450 0 0 445 0 445 450 0 450 0 0 -445z"/>
<path d="M705 4523 c-127 -35 -144 -226 -25 -285 103 -52 220 19 220 134 0 58
-19 99 -59 127 -30 22 -100 34 -136 24z"/>
<path d="M1897 4816 c-69 -25 -97 -66 -97 -143 0 -57 26 -105 72 -133 33 -20
54 -20 1588 -20 1534 0 1555 0 1588 20 97 59 97 214 0 267 -31 17 -112 18
-1573 20 -1271 2 -1547 0 -1578 -11z"/>
<path d="M1880 4212 c-108 -54 -108 -216 0 -273 33 -18 71 -19 675 -19 604 0
642 1 675 19 108 57 108 219 0 273 -32 17 -86 18 -675 18 -589 0 -643 -1 -675
-18z"/>
<path d="M3690 4212 c-108 -54 -108 -216 0 -273 33 -18 71 -19 675 -19 604 0
642 1 675 19 108 57 108 219 0 273 -32 17 -86 18 -675 18 -589 0 -643 -1 -675
-18z"/>
<path d="M73 3304 c-18 -9 -42 -31 -53 -49 -19 -32 -20 -49 -20 -681 0 -633 1
-650 20 -682 12 -19 38 -41 63 -52 40 -19 72 -20 667 -20 595 0 627 1 667 20
25 11 51 33 63 52 19 32 20 49 20 682 0 633 0 649 -20 681 -41 67 -19 65 -732
65 -569 0 -647 -2 -675 -16z m1127 -729 l0 -445 -450 0 -450 0 0 445 0 445
450 0 450 0 0 -445z"/>
<path d="M683 2710 c-111 -50 -113 -217 -3 -272 70 -35 154 -13 197 51 30 45
31 122 3 169 -22 35 -88 72 -130 72 -14 0 -44 -9 -67 -20z"/>
<path d="M1909 3021 c-78 -24 -114 -80 -107 -164 3 -42 11 -64 29 -83 54 -58
-53 -54 1629 -54 1682 0 1575 -4 1629 54 18 19 26 41 29 83 6 69 -15 113 -67
146 l-36 22 -1540 2 c-847 1 -1552 -2 -1566 -6z"/>
<path d="M1871 2398 c-47 -31 -74 -81 -74 -132 1 -38 530 -2126 555 -2189 18
-46 73 -77 138 -77 90 0 101 11 255 266 76 126 149 246 162 266 l23 38 163
-127 c89 -70 186 -144 216 -165 140 -98 351 -104 503 -15 53 31 125 106 161
167 72 124 75 297 7 433 -12 24 -89 129 -171 233 -82 104 -149 191 -149 194 0
3 120 77 267 165 293 175 303 185 303 271 0 61 -29 110 -80 137 -44 22 -2116
546 -2190 554 -47 4 -60 1 -89 -19z m1059 -539 c399 -100 729 -185 733 -189 4
-4 -74 -56 -173 -115 -154 -92 -184 -114 -201 -146 -20 -41 -25 -93 -10 -131
5 -13 104 -144 219 -292 117 -150 214 -282 218 -298 14 -66 -18 -133 -79 -164
-36 -19 -96 -20 -129 -3 -13 7 -142 105 -288 218 l-264 205 -61 4 c-92 5 -105
-8 -233 -218 -90 -148 -111 -177 -117 -160 -12 37 -375 1464 -375 1473 0 4 8
6 18 3 9 -3 343 -87 742 -187z"/>
<path d="M84 1511 c-11 -5 -34 -25 -52 -45 l-32 -37 0 -653 0 -653 22 -33 c13
-18 39 -41 58 -51 33 -18 71 -19 670 -19 599 0 637 1 670 19 19 10 45 33 58
51 l22 33 0 654 0 654 -39 42 -40 42 -658 2 c-362 1 -667 -2 -679 -6z m1116
-736 l0 -445 -450 0 -450 0 0 445 0 445 450 0 450 0 0 -445z"/>
</g>
</svg>
