<?xml version="1.0" standalone="no"?>
<!DOCTYPE svg PUBLIC "-//W3C//DTD SVG 20010904//EN"
 "http://www.w3.org/TR/2001/REC-SVG-20010904/DTD/svg10.dtd">
<svg version="1.0" xmlns="http://www.w3.org/2000/svg"
 width="512.000000pt" height="512.000000pt" viewBox="0 0 512.000000 512.000000"
 preserveAspectRatio="xMidYMid meet">
<metadata>
Created by potrace 1.16, written by Peter Selinger 2001-2019
</metadata>
<g transform="translate(0.000000,512.000000) scale(0.100000,-0.100000)"
fill="#000000" stroke="none">
<path d="M911 5014 c-20 -25 -21 -40 -21 -215 l0 -189 -208 0 c-154 0 -223 -4
-267 -15 -155 -41 -276 -156 -319 -306 -15 -50 -16 -190 -14 -1425 l3 -1369
32 -68 c65 -136 198 -235 348 -257 39 -5 188 -10 331 -10 l261 0 6 -29 c23
-113 120 -225 275 -316 l102 -60 -148 -6 c-116 -5 -159 -11 -203 -28 -113 -43
-178 -101 -221 -199 -18 -38 -22 -73 -26 -189 -5 -160 1 -206 29 -234 19 -19
48 -19 1689 -19 1641 0 1670 0 1689 19 29 29 34 76 29 235 -4 126 -8 149 -30
198 -48 104 -157 183 -287 208 -30 5 -168 10 -307 10 l-254 0 0 205 0 205 593
0 c343 0 621 5 662 10 150 22 283 121 348 257 l32 68 3 1372 c2 1361 2 1373
-18 1434 -51 150 -163 254 -315 294 -44 11 -113 15 -267 15 l-208 0 0 189 c0
175 -1 190 -21 215 l-20 26 -1629 0 -1629 0 -20 -26z m3149 -1404 l0 -1270
-1045 0 -1045 0 0 124 0 123 39 7 c47 7 99 48 117 93 11 25 14 105 14 353 0
299 -1 323 -20 359 -11 22 -35 49 -54 60 -34 21 -42 22 -385 19 l-350 -3 -36
-35 c-19 -19 -40 -50 -45 -70 -14 -49 -13 -614 1 -665 15 -55 66 -103 118
-111 l41 -7 0 -123 0 -124 -175 0 -175 0 0 1270 0 1270 1500 0 1500 0 0 -1270z
m-3170 760 l0 -70 -201 0 c-224 0 -250 -6 -284 -63 -20 -31 -20 -61 -23 -1197
-1 -641 0 -1175 3 -1188 3 -12 14 -31 25 -42 19 -19 35 -20 350 -20 182 0 330
-2 330 -4 0 -2 -11 -26 -25 -53 -45 -87 -51 -152 -28 -351 l6 -54 -289 4
c-283 3 -290 4 -339 28 -96 47 -149 121 -166 233 -6 38 -9 560 -7 1342 l3
1280 28 57 c33 66 100 130 160 152 32 11 93 15 250 15 l207 1 0 -70z m3793 54
c63 -21 130 -83 164 -152 l28 -57 0 -1320 c0 -1103 -2 -1327 -14 -1360 -21
-59 -64 -118 -110 -148 -86 -57 -84 -57 -948 -57 l-793 0 0 230 0 230 840 0
c823 0 840 0 860 20 11 11 22 30 25 42 3 13 4 547 3 1188 -3 1136 -3 1166 -23
1197 -34 57 -60 63 -284 63 l-201 0 0 70 0 70 203 0 c159 0 214 -3 250 -16z
m-3793 -1245 l0 -951 29 -29 29 -29 231 0 231 0 0 -105 0 -105 -430 0 -430 0
0 1085 0 1085 170 0 170 0 0 -951z m3680 -134 l0 -1085 -814 0 -815 0 -52 32
c-47 30 -60 33 -136 35 l-84 2 -28 38 c-31 43 -65 68 -119 88 -32 12 88 14
806 14 l844 1 29 29 29 29 0 951 0 951 170 0 170 0 0 -1085z m-2600 28 c-1
-215 -3 -243 -14 -212 -44 124 -138 189 -270 189 -127 -1 -242 -92 -265 -212
-6 -28 -9 45 -10 220 l-1 262 280 0 280 0 0 -247z m-208 -222 l33 -29 5 -422
5 -422 24 -19 c28 -23 78 -25 107 -5 12 8 28 34 37 58 44 115 194 99 213 -23
9 -54 42 -89 84 -89 25 0 42 11 80 50 37 39 55 50 79 50 45 0 90 -45 97 -95
10 -75 14 -85 45 -101 39 -20 72 -12 116 27 47 40 92 40 128 -2 l26 -32 -3
-461 -3 -461 -29 -62 -29 -63 -546 1 -546 0 -30 47 c-25 40 -53 61 -172 132
-240 144 -248 156 -274 423 -10 105 -16 211 -13 234 10 68 55 130 117 158 99
47 95 52 99 -155 3 -171 4 -181 26 -202 31 -32 97 -31 123 1 18 22 19 51 19
700 0 432 4 689 10 713 22 79 111 104 172 49z m1468 -1896 l0 -205 -131 0
c-121 0 -131 1 -124 18 22 59 35 151 35 265 l0 127 110 0 110 0 0 -205z
m-1700 -470 c0 -88 2 -98 25 -120 l24 -25 651 0 651 0 24 25 c23 22 25 32 25
120 l0 95 480 0 c303 0 497 -4 529 -11 55 -12 121 -54 148 -96 13 -20 19 -53
21 -130 l4 -103 -1551 0 -1551 0 0 83 c0 112 12 149 63 192 62 54 108 64 295
64 l162 1 0 -95z m1230 60 l0 -35 -530 0 -530 0 0 35 0 35 530 0 530 0 0 -35z"/>
<path d="M1334 4611 c-25 -11 -50 -34 -65 -57 l-24 -39 0 -335 c0 -332 0 -335
23 -372 14 -22 40 -45 67 -58 42 -20 54 -21 373 -18 l329 3 35 27 c67 51 68
59 68 417 0 359 -1 368 -66 417 l-37 29 -331 3 c-306 2 -334 1 -372 -17z m636
-431 l0 -280 -280 0 -280 0 0 280 0 280 280 0 280 0 0 -280z"/>
<path d="M1813 4370 c-12 -5 -52 -45 -88 -90 l-67 -81 -44 41 c-51 47 -89 52
-130 16 -21 -18 -28 -32 -28 -60 0 -33 9 -46 87 -123 75 -76 91 -87 121 -87
44 0 49 5 167 151 108 135 118 161 77 207 -26 29 -63 39 -95 26z"/>
<path d="M2455 4445 c-25 -24 -32 -65 -19 -100 17 -45 25 -45 716 -45 506 0
659 3 678 13 37 19 54 61 41 99 -21 60 14 57 -719 58 l-673 0 -24 -25z"/>
<path d="M2475 4048 c-52 -28 -62 -92 -20 -133 l24 -25 673 0 c726 1 697 -2
718 54 13 36 3 72 -27 96 -25 20 -42 20 -687 20 -459 -1 -667 -4 -681 -12z"/>
<path d="M2473 3320 c-48 -19 -58 -95 -18 -135 l24 -25 670 0 670 0 27 24 c39
33 39 89 0 122 l-27 24 -662 -1 c-364 0 -672 -4 -684 -9z"/>
<path d="M2452 2887 c-30 -32 -29 -87 1 -115 l23 -22 673 0 c411 0 679 4 690
10 31 16 46 65 31 100 -7 17 -21 35 -31 40 -11 6 -279 10 -692 10 l-674 0 -21
-23z"/>
</g>
</svg>
